# xmcd
#
# Track frame offsets: 
#        150
#        14471
#        28603
#        43194
#        57689
#        72361
#        86679
#        101766
#        114464
#        129033
#        143906
#        157928
#        172067
#        185543
#        200358
#        214733
#        229192
#        243894
#        258495
#        273851
#        287170
#        300400
#        313715
#        326892
#
# Disc length: 4564 seconds
#
# Revision: 0
# Processed by: cddbd v1.5.2PL0 Copyright (c) Steve Scherf et al.
# Submitted via: ExactAudioCopy v0.99pb4
#
DISCID=6011d218
DTITLE=Various Artist - The Bristol Sessions [CD1]
DYEAR=1927
DGENRE=Country
TTITLE0=Ernest V. Stoneman, E. Kahle Brewer, Walter Mooney - Dying Gir
TTITLE0=l's Farewell
TTITLE1=Ernest V. Stoneman, E. Kahle Brewer, Walter Mooney - Tell Moth
TTITLE1=er I Will Meet Her
TTITLE2=Ernest V. Stoneman, Miss Irma Frost, Uncle Eck Dunford - Mount
TTITLE2=aineer's Courtship
TTITLE3=Ernest V. Stoneman, Miss Irma Frost - Midnight On The Stormy D
TTITLE3=eep
TTITLE4=Ernest V. Stoneman and His Dixie Mountaineers - Sweeping Through
TTITLE4=The Gates
TTITLE5=Ernest V. Stoneman and His Dixie Mountaineers - I Know My Name I
TTITLE5=s There
TTITLE6=Ernest V. Stoneman and His Dixie Mountaineers - Are You Washed I
TTITLE6=n The Blood?
TTITLE7=Ernest V. Stoneman and His Dixie Mountaineers - No More Good-Bye
TTITLE7=s
TTITLE8=Ernest V. Stoneman and His Dixie Mountaineers - The Resurrection
TTITLE8=(Take 1)
TTITLE9=Ernest V. Stoneman and His Dixie Mountaineers - The Resurrection
TTITLE9=(Take 2)
TTITLE10=Ernest V. Stoneman and His Dixie Mountaineers - I Am Resolved (
TTITLE10=Take 1)
TTITLE11=Ernest V. Stoneman and His Dixie Mountaineers - I Am Resolved (
TTITLE11=Take 2)
TTITLE12=Ernest Phipps and His Holiness Quartet - I Want To Go Where Jes
TTITLE12=us Is
TTITLE13=Ernest Phipps and His Holiness Quartet - Do, Lord, Remember Me
TTITLE14=Ernest Phipps and His Holiness Quartet - Old Ship Of Zion
TTITLE15=Ernest Phipps and His Holiness Quartet - Jesus Getting Us Ready
TTITLE15=For That Great Day
TTITLE16=Ernest Phipps and His Holiness Quartet - Happy In Prison
TTITLE17=Ernest Phipps and His Holiness Quartet - Don't Grieve After Me
TTITLE18=Uncle Eck Dunford, Hattie Stoneman - What Will I Do, For My M
TTITLE18=oney's All Gone
TTITLE19=Uncle Eck Dunford - The Whip-poor-will's Song
TTITLE20=Uncle Eck Dunford - Skip To The Lou, My Darling
TTITLE21=Uncle Eck Dunford, Ernest Stoneman - Barney McCoy
TTITLE22=Blue Ridge Corn Shuckers - Old Time Corn Shuckin', Part 1
TTITLE23=Blue Ridge Corn Shuckers - Old Time Corn Shuckin', Part 2
EXTD=
EXTT0=
EXTT1=
EXTT2=
EXTT3=
EXTT4=
EXTT5=
EXTT6=
EXTT7=
EXTT8=
EXTT9=
EXTT10=
EXTT11=
EXTT12=
EXTT13=
EXTT14=
EXTT15=
EXTT16=
EXTT17=
EXTT18=
EXTT19=
EXTT20=
EXTT21=
EXTT22=
EXTT23=
PLAYORDER=
